# xmcd
#
# Track frame offsets:
#	150
#	16701
#	33143
#	48075
#	65258
#	81915
#	101626
#	114979
#	129279
#	147364
#	164091
#	178081
#	193061
#	212189
#	225942
#	253538
#
# Disc length: 3395 seconds
#
# Revision: 2
# Processed by: cddbd v1.5.2PL0 Copyright (c) Steve Scherf et al.
# Submitted via: audiograbber 1.83.01
#
DISCID=cf0d4110
DTITLE=Lorrie Morgan - 90282
DYEAR=2011
DGENRE=Country
TTITLE0=My Night To Howl
TTITLE1=Do You Still Want To Buy Me That Drink Frank
TTITLE2=Crying Time
TTITLE3=Half Enough
TTITLE4=I Didn't Know My Own Strength
TTITLE5=I Guess You Had To Be There
TTITLE6=Someone To Call Me Darling
TTITLE7=Standing Tall
TTITLE8=I'll Take The Memories
TTITLE9=One Of Those Nights Tonight
TTITLE10=She's Takin' Him Back Again
TTITLE11=I Just Might Be
TTITLE12=You'd Think He'd Know Me Better
TTITLE13=By My Side
TTITLE14=Til A Tear Becomes A Rose
TTITLE15=Data
EXTD=Correct Submission of CB90282 cdg
EXTT0=
EXTT1=
EXTT2=
EXTT3=
EXTT4=
EXTT5=
EXTT6=
EXTT7=
EXTT8=
EXTT9=
EXTT10=
EXTT11=
EXTT12=
EXTT13=
EXTT14=
EXTT15=
PLAYORDER=
